<svg xmlns="http://www.w3.org/2000/svg" width="23.437" height="25" viewBox="0 0 23.437 25"><path d="M10.383,11.3h3.125v3.125H10.383Zm4.687,0H18.2v3.125H15.071Zm4.687,0h3.125v3.125H19.758ZM5.7,20.678H8.821V23.8H5.7Zm4.688,0h3.125V23.8H10.383Zm4.688,0H18.2V23.8H15.071Zm-4.687-4.687h3.125v3.125H10.383Zm4.688,0H18.2v3.125H15.071Zm4.687,0h3.125v3.125H19.758Zm-14.062,0H8.821v3.125H5.7ZM22.883,1.928V3.491H19.758V1.928H8.821V3.491H5.7V1.928H2.571v25H26.008v-25H22.883Zm1.563,23.438H4.133V8.178H24.446Z" transform="translate(-2.571 -1.928)" fill="#264653"/></svg>