<svg xmlns="http://www.w3.org/2000/svg" width="28.125" height="18.75" viewBox="0 0 28.125 18.75"><path d="M27.955,13.162A15.661,15.661,0,0,0,14.062,4.5,15.663,15.663,0,0,0,.17,13.162a1.58,1.58,0,0,0,0,1.425A15.661,15.661,0,0,0,14.062,23.25a15.663,15.663,0,0,0,13.892-8.662A1.58,1.58,0,0,0,27.955,13.162ZM14.062,20.906a7.031,7.031,0,1,1,7.031-7.031A7.031,7.031,0,0,1,14.062,20.906Zm0-11.719a4.654,4.654,0,0,0-1.236.185A2.336,2.336,0,0,1,9.56,12.639a4.677,4.677,0,1,0,4.5-3.452Z" transform="translate(0 -4.5)" fill="#fff"/></svg>