<svg xmlns="http://www.w3.org/2000/svg" width="28.123" height="20" viewBox="0 0 28.123 20"><path d="M30.059,6.683a1,1,0,0,0-.09-.181.943.943,0,0,0-.05-.11,1.607,1.607,0,0,0-.311-.241l-.171-.06H2.944a1,1,0,0,0-.211,0l-.171.06a1,1,0,0,0-.151.1,1,1,0,0,0-.151.131.934.934,0,0,0-.05.11A.793.793,0,0,0,2,6.883.934.934,0,0,0,2,7V25.08a1,1,0,0,0,1,1h26.11a1,1,0,0,0,1-1V7a.933.933,0,0,0,0-.121,1,1,0,0,0-.06-.2Zm-3.9,1.326-10.1,7.773L5.957,8.008ZM28.11,24.076H4.008V9.012l11.438,8.8a1,1,0,0,0,1.225,0l11.438-8.8Z" transform="translate(-1.998 -6.084)" fill="#fff"/></svg>