<svg xmlns="http://www.w3.org/2000/svg" width="31.25" height="25" viewBox="0 0 31.25 25"><path d="M15.625,19.531a7,7,0,0,1-6.977-6.5L3.525,9.073a16.274,16.274,0,0,0-1.793,2.714,1.58,1.58,0,0,0,0,1.425,15.661,15.661,0,0,0,13.892,8.662,15.167,15.167,0,0,0,3.8-.511L16.894,19.4a7.038,7.038,0,0,1-1.27.127Zm15.323,2.837L25.55,18.2a16.174,16.174,0,0,0,3.967-4.984,1.58,1.58,0,0,0,0-1.425A15.661,15.661,0,0,0,15.625,3.125,15.046,15.046,0,0,0,8.432,4.966L2.22.164A.781.781,0,0,0,1.123.3L.165,1.536A.781.781,0,0,0,.3,2.632l28.728,22.2a.781.781,0,0,0,1.1-.137l.959-1.234a.781.781,0,0,0-.138-1.1Zm-8.971-6.934-1.919-1.483A4.627,4.627,0,0,0,14.389,8a2.327,2.327,0,0,1,.455,1.377,2.277,2.277,0,0,1-.075.488L11.174,7.085a6.949,6.949,0,0,1,4.451-1.617A7.027,7.027,0,0,1,22.656,12.5a6.864,6.864,0,0,1-.679,2.935Z" transform="translate(0 0)" fill="#fff"/></svg>