<svg xmlns="http://www.w3.org/2000/svg" width="24.5" height="25" viewBox="0 0 24.5 25"><path d="M142.55,109.317a10.712,10.712,0,0,0-.264-2.556H130.55V111.4h6.889a6.109,6.109,0,0,1-2.556,4.056l-.023.155,3.711,2.875.257.026a12.222,12.222,0,0,0,3.722-9.194" transform="translate(-118.05 -96.539)" fill="#4285f4"/><path d="M25.092,166.4a11.914,11.914,0,0,0,8.278-3.028l-3.944-3.056a7.4,7.4,0,0,1-4.333,1.25,7.525,7.525,0,0,1-7.111-5.194l-.147.012-3.858,2.986-.05.14A12.491,12.491,0,0,0,25.092,166.4" transform="translate(-12.592 -141.398)" fill="#34a853"/><path d="M5.389,79.456a7.7,7.7,0,0,1-.417-2.472,8.086,8.086,0,0,1,.4-2.472l-.007-.166L1.461,71.312l-.128.061a12.474,12.474,0,0,0,0,11.222l4.056-3.139" transform="translate(0 -64.484)" fill="#fbbc05"/><path d="M25.092,4.833a6.928,6.928,0,0,1,4.833,1.861L33.453,3.25A12.01,12.01,0,0,0,25.092,0,12.491,12.491,0,0,0,13.925,6.889l4.042,3.139a7.556,7.556,0,0,1,7.125-5.194" transform="translate(-12.592)" fill="#eb4335"/></svg>