<svg xmlns="http://www.w3.org/2000/svg" width="24.857" height="24.902" viewBox="0 0 24.857 24.902"><g transform="translate(-178.079 -248.523)"><path d="M202.933,248.525q0,2.576,0,5.153c0,.627,0,1.254,0,1.88,0,.076-.016.1-.1.1q-1.029,0-2.057,0c-.073,0-.1-.021-.117-.092a5.246,5.246,0,0,0-.609-1.526,3.759,3.759,0,0,0-2.315-1.67,9.027,9.027,0,0,0-2.1-.288c-.491-.017-.983-.012-1.475-.022-.094,0-.115.028-.115.118q0,2.119,0,4.239,0,5.719,0,11.438a11.228,11.228,0,0,0,.136,2.039,4.436,4.436,0,0,0,.13.523,1.484,1.484,0,0,0,1.251,1.072,10.449,10.449,0,0,0,1.708.1c.138,0,.277,0,.416,0,.06,0,.085.012.085.079q0,.837,0,1.673c0,.064-.02.089-.083.082a.494.494,0,0,0-.062,0q-7.122,0-14.244,0c-.111,0-.145-.022-.144-.139.007-.53.005-1.06,0-1.589,0-.088.025-.107.11-.108.557-.009,1.115-.014,1.671-.045a3.28,3.28,0,0,0,.712-.13,1.386,1.386,0,0,0,.947-.941,4.87,4.87,0,0,0,.246-1.416q.038-.814.038-1.63,0-7.6,0-15.21c0-.152,0-.156-.149-.152-.692.018-1.385.02-2.076.063a6.2,6.2,0,0,0-2.135.482,3.693,3.693,0,0,0-2.014,2.18c-.1.258-.165.527-.251.79-.01.032-.054.075-.082.076-.727,0-1.454,0-2.182,0q0-3.517,0-7.034c0-.078.017-.1.1-.1Q190.554,248.526,202.933,248.525Z" transform="translate(0 0)" fill="#878787"/></g></svg>